<?xml version="1.0" encoding="UTF-8"?> <svg xmlns="http://www.w3.org/2000/svg" id="Layer_1" data-name="Layer 1" viewBox="0 0 264 300"><defs><style> .cls-1 { fill: #8acbce; } .cls-2 { stroke: #053947; stroke-miterlimit: 10; stroke-width: 11.36px; } .cls-2, .cls-3 { fill: #fff; } .cls-4 { font-size: 33.89px; } .cls-4, .cls-5, .cls-6, .cls-7 { fill: #053947; } .cls-4, .cls-5, .cls-3 { font-family: Usual-Bold, Usual; font-weight: 700; } .cls-5 { font-size: 37.89px; } .cls-8 { letter-spacing: 0em; } .cls-3 { font-size: 59px; letter-spacing: -.03em; } .cls-7 { font-family: Usual-Medium, Usual; font-size: 20.48px; font-weight: 500; } .cls-9 { letter-spacing: -.08em; } .cls-10 { letter-spacing: -.02em; } .cls-11 { letter-spacing: -.02em; } .cls-12 { letter-spacing: -.04em; } </style></defs><polygon class="cls-2" points="7.47 78.21 132.59 7.77 255.86 78.21 255.86 220.94 131.88 292.3 7.47 221.38 7.47 78.21"></polygon><polygon class="cls-1" points="23.85 194.28 238.83 194.28 238.83 211.4 132.54 272.17 23.85 211.13 23.85 194.28"></polygon><polyline class="cls-6" points="214.21 108.08 185.62 58.65 133.76 108.08 126.47 108.08 157.46 78.1 154.3 71.85 117.95 108.08 113.01 108.08 152.69 69.1 150.32 64.19 104.36 108.08 96.7 108.08 121.96 83.38 118.71 76.76 88.15 108.08 83.4 108.08 117.1 74 114.73 69.1 74.73 108.08 67.86 108.08 89.83 85.47 86.87 79.38 59.31 108.08 54.51 108.08 85.26 76.62 82.89 71.72 45.84 108.08"></polyline><rect class="cls-6" x="23.85" y="107.28" width="214.99" height="76.35"></rect><text class="cls-3" transform="translate(71.72 168.28)"><tspan x="0" y="0">ASE</tspan></text><text class="cls-5" transform="translate(81.66 233.93)"><tspan x="0" y="0">2</tspan><tspan class="cls-10" x="24.63" y="0">02</tspan><tspan class="cls-8" x="72.36" y="0">4</tspan></text><polygon class="cls-2" points="7.47 78.21 132.59 7.77 255.86 78.21 255.86 220.94 131.88 292.3 7.47 221.38 7.47 78.21"></polygon><polygon class="cls-1" points="23.85 194.28 238.83 194.28 238.83 211.4 132.54 272.17 23.85 211.13 23.85 194.28"></polygon><polyline class="cls-6" points="214.21 108.08 185.62 58.65 133.76 108.08 126.47 108.08 157.46 78.1 154.3 71.85 117.95 108.08 113.01 108.08 152.69 69.1 150.32 64.19 104.36 108.08 96.7 108.08 121.96 83.38 118.71 76.76 88.15 108.08 83.4 108.08 117.1 74 114.73 69.1 74.73 108.08 67.86 108.08 89.83 85.47 86.87 79.38 59.31 108.08 54.51 108.08 85.26 76.62 82.89 71.72 45.84 108.08"></polyline><rect class="cls-6" x="23.85" y="107.28" width="214.99" height="76.35"></rect><text class="cls-3" transform="translate(71.72 168.28)"><tspan x="0" y="0">ASE</tspan></text><g><text class="cls-4" transform="translate(86.12 234.04)"><tspan class="cls-11" x="0" y="0">SA</tspan><tspan class="cls-12" x="47.44" y="0">F</tspan><tspan class="cls-9" x="67.09" y="0">e</tspan></text><text class="cls-7" transform="translate(171.04 226.62)"><tspan x="0" y="0">®</tspan></text></g></svg> 